/* XPM */
static char *result[] = {
/* columns rows colors chars-per-pixel */
"50 50 253 2 ",
"   c #371D1B",
".  c #3D2217",
"X  c #590601",
"o  c #5A1708",
"O  c #680A06",
"+  c #671409",
"@  c #76140A",
"#  c #4A2C16",
"$  c #702913",
"%  c #51332D",
"&  c #78382B",
"*  c #385402",
"=  c #4F530C",
"-  c #575B16",
";  c #536C0F",
":  c #6A6019",
">  c #5F5420",
",  c #594638",
"<  c #694938",
"1  c #6F6E2E",
"2  c #532D4F",
"3  c #6A3754",
"4  c #5A346D",
"5  c #772879",
"6  c #5E454A",
"7  c #73504B",
"8  c #754C6F",
"9  c #94170B",
"0  c #AB1B12",
"q  c #892509",
"w  c #832612",
"e  c #942F13",
"r  c #AF2813",
"t  c #A83815",
"y  c #B73817",
"u  c #8E3B24",
"i  c #B83524",
"p  c #C93318",
"a  c #C73819",
"s  c #C83D21",
"d  c #AB4618",
"f  c #B6421A",
"g  c #B9521E",
"h  c #975B23",
"j  c #854A3B",
"k  c #904D31",
"l  c #B74826",
"z  c #B85628",
"x  c #AD5530",
"c  c #B26537",
"v  c #C6471B",
"b  c #D8481D",
"n  c #E14B1F",
"m  c #CB4925",
"M  c #D54F28",
"N  c #C55828",
"B  c #D85828",
"V  c #E14D20",
"C  c #E55827",
"Z  c #C9622D",
"A  c #C96632",
"S  c #D36B35",
"D  c #CB743B",
"F  c #D6773A",
"G  c #E5632E",
"H  c #E86A34",
"J  c #E9753B",
"K  c #F2773B",
"L  c #8A584D",
"P  c #8F6A50",
"I  c #946B59",
"U  c #B2744C",
"Y  c #8A4E71",
"T  c #8F686B",
"R  c #946669",
"E  c #987A69",
"W  c #A47866",
"Q  c #CA6D45",
"!  c #E87A40",
"~  c #4E8E1A",
"^  c #698D14",
"/  c #569521",
"(  c #6C9721",
")  c #73A52D",
"_  c #769544",
"`  c #93AF1B",
"'  c #879332",
"]  c #95A529",
"[  c #89B639",
"{  c #92B537",
"}  c #DB803E",
"|  c #8A8A53",
" . c #B38B56",
".. c #8DAA4E",
"X. c #A1BE42",
"o. c #9A8B71",
"O. c #A38568",
"+. c #B4906E",
"@. c #A68975",
"#. c #A9957C",
"$. c #B89575",
"%. c #B0A574",
"&. c #D68B4B",
"*. c #E78846",
"=. c #F38646",
"-. c #E59149",
";. c #F29853",
":. c #E7A559",
">. c #F4A55B",
",. c #CD976E",
"<. c #C8A377",
"1. c #D0AC7D",
"2. c #E9AD70",
"3. c #3D2681",
"4. c #4F308F",
"5. c #653E94",
"6. c #5435AB",
"7. c #663DAC",
"8. c #744B8E",
"9. c #5D42A9",
"0. c #734BB0",
"q. c #5A39D1",
"w. c #683DD7",
"e. c #633FE0",
"r. c #744CCA",
"t. c #6C43DC",
"y. c #7946D9",
"u. c #6945E7",
"i. c #754AE3",
"p. c #7E51E6",
"a. c #6A49F1",
"s. c #7C53F0",
"d. c #A635AF",
"f. c #92518E",
"g. c #A44E9C",
"h. c #976E90",
"j. c #A87088",
"k. c #8959AF",
"l. c #B24CB9",
"z. c #9564B4",
"x. c #B36CB4",
"c. c #A877B5",
"v. c #C46EA0",
"b. c #DC3DEB",
"n. c #884FCC",
"m. c #8952DB",
"M. c #9658D9",
"N. c #9961D2",
"B. c #AB71CF",
"V. c #A368DD",
"C. c #8658E4",
"Z. c #9253EC",
"A. c #B84DEF",
"S. c #A558E9",
"D. c #B558E7",
"F. c #9A67E8",
"G. c #926AF2",
"H. c #A96AE4",
"J. c #B369E5",
"K. c #AB77EB",
"L. c #B979E8",
"P. c #A675F4",
"I. c #B874F0",
"U. c #C954CD",
"Y. c #D177D1",
"T. c #D04EF3",
"R. c #EB4FFD",
"E. c #EA56FE",
"W. c #C377EC",
"Q. c #CA6AF2",
"!. c #D877F6",
"~. c #E96BF9",
"^. c #F266FF",
"/. c #F56BFF",
"(. c #E677F7",
"). c #F575FE",
"_. c #FA7DFF",
"`. c #B18E88",
"'. c #A49991",
"]. c #B4A78E",
"[. c #B88DBA",
"{. c #BCA2BC",
"}. c #C8A886",
"|. c #CBAF8D",
" X c #D7A298",
".X c #C8B599",
"XX c #D6BB95",
"oX c #D0B9A7",
"OX c #CEBFB4",
"+X c #DAC495",
"@X c #E2C69D",
"#X c #D5C8B2",
"$X c #E4CAAB",
"%X c #EECCAF",
"&X c #E9D1AB",
"*X c #EAD8B9",
"=X c #F3DAB9",
"-X c #F5E2BD",
";X c #B283EE",
":X c #AC83F6",
">X c #B988F4",
",X c #CE8FD0",
"<X c #E99BDE",
"1X c #D6A8D6",
"2X c #E2B1D3",
"3X c #C889EB",
"4X c #D18DED",
"5X c #D795EF",
"6X c #CA84F1",
"7X c #D985F4",
"8X c #C795F1",
"9X c #D899F3",
"0X c #E696EA",
"qX c #E988F8",
"wX c #F786FD",
"eX c #FC8DFF",
"rX c #EA99F9",
"tX c #FF95FF",
"yX c #F89AFD",
"uX c #D9ACF7",
"iX c #E8B0EC",
"pX c #E3A4F6",
"aX c #E9A9F8",
"sX c #FEA3FF",
"dX c #F5AAFC",
"fX c #FEACFF",
"gX c #ECB5F9",
"hX c #FEB4FF",
"jX c #F5B8FB",
"kX c #FDBCFF",
"lX c #D9D3CA",
"zX c #E5D8C7",
"xX c #E4DEDA",
"cX c #D9E1CD",
"vX c #EDE1CC",
"bX c #F7E4C7",
"nX c #E4E1DE",
"mX c #ECE4D9",
"MX c #F8EBD6",
"NX c #FDF1D6",
"BX c #FCF2DD",
"VX c #EDC5FA",
"CX c #F5C6F8",
"ZX c #FEC3FF",
"AX c #FDC9FE",
"SX c #FED4FF",
"DX c #FFDAFF",
"FX c #F3EEE9",
"GX c #F9F3E8",
"HX c #FEF9EC",
"JX c #F8F7F5",
"KX c #FEFBF4",
"LX c #FFFEFD",
/* pixels */
"P.G.H.M.H.>XI.rXyX_.wXwX>X3XjXfXZXgX>X8XrX!.H.m.u.u.m.W.rXdX6XK.aXkXhXgXL.J.wX/.^.eX!.K.:XH.M.K.P.P.",
";X:XP.D.L.4XI.Q.wX)./._.!.6XpXZXhXsX4X8XZXjXaXJ.i.u.J.dXAXCXK.K.sXtXfX3XF.!./.R./.qXS.F.K.L.W.>X>X;X",
"7XS.S.Z.S.!.pXQ.Q.).).eXeX!.7XjXsXtXqX8XCXSXDX9Xu.t.4XSXDXpXC.7XtXtXpXF.H.yX)._.(.S.Z.K.7XQ.A.J.Q.5X",
"kXqXD.Z.Z.M.6XuX!.~.eXsXhXrX4XaXZXsXgXgXVXAXSXaXy.u.rXSXSX>Xp.rXsXjX;Xp.4XSXZXrXZ.s.F.9X!.A.T.T.qXhX",
"(.hXaXD.m.s.m.L.gX(._.yXhXkXdXgXSXSX2X,X1X2X1X1X0.r.,X2X2Xz.n.1X<XaXC.F.jXdX4XC.s.m.4X(.T.b.T.sXjX!.",
"D.Q.eXfXL.y.a.m.W.hX~.wXhXSXCXCXAXiXj.P I P I I P 7 I I P L L P j.B.i.rXSX4Xy.a.u.J.wXR.T.E.yXrXQ.D.",
">XQ.T.).hXW.w.a.w.4XfXR./.<X`.j.j.j.$.|.#X#XOXOXOXOX#X#Xo.= > | $.h.j.j.j.,Xi.u.m.aXsX^.).fX!.S.S.P.",
"C.>X5XqXrXZXW.w.u.w.,X,XU.v.E O.#.}.&XGXLXLXLXLXLXLXLXcX| ; = $.&X}.+.W E h.9.z.pXrXjXgX4XH.C.G.G.p.",
"u.t.K.uXgXjXkX3Xy.a.7.< < +.@XMXJXKXKXLXJXJXJXJXJXLXcX1 ` ` - %.NXbX-X&XXXO.7 < [.kXJ.n.y.s.G.s.u.u.",
"u.u.t.H.aXeX/.tXaX8.7 +..XzXGXLXLXLXHXNXzX'._ _ | ].|.- ` ` ; %.BXBX]._ | ]..X#.L x.M.w.a.s.i.i.t.t.",
"W.M.i.e.M.rXwXT.l.R O.zXKXLXLXGXMXmX=X&X}.- * * ; ( P = ^ ` - +.&X].] ; = OXLXzXO.Y 5.u.i.t.y.n.V.W.",
"sXdX5XF.e.y.4XY.7 +.*XKXLXJXFX*XXX<.<.<.$.: ; ~ ^ ; = = ^ ^ ; |  .: ` ` - .XLXJX=X+.6 9.n.H.7XiXhXsX",
"^.E.).yX3Xp.8.T $.&XKXLXBX.XL x z d d u & U ,. .: ; ^ [ ) / { ' - = ` ` ; %.BXLXHX*X$.T x.CXCXyX).^.",
"tXwXR.R./.qXj.O.*XKXLXMX|.L @ 9 r r f t u A Q c = : { { ^ ~ [ ) ~ ; ` ( - +.*XbXKXKXzXO.`.yX_.).eXyX",
">X8XrX_.R.b.v.}.GXLXGX$Xj + e a n V J =.J f w o + x &.- = ; ~ ) [ / / ^ = %.@X|.vXLXHX}.v.~.wXdXpX8X",
"P.P.G.K.B.7 W &XJXBX&X1.d t H H H K G C C M Q &.N m e o j  .- ; ^ ( / ~ ; %.&X+X+XzXJX&XW 3 ,X9X>X;X",
"!.L.F.C.r.6 #.BXKX*X+X@Xk q z v B J G C C C K ;.;.H f e x c $ . = ; ^ ( ) ..].-XXX+XLXNX].< ,XuX4X4X",
"hXhXaX7Xc.+.#XLXLX$XXX#XL X q q t Z } K C V p C >.>.! H m 9 + o o = ^ { X.( ..*X+X$XLXLX#X+.,XjXkXhX",
"kXtX/.g.3 1.MXLXLXbX<.L u f f f N A S B n C G C C m s ! J B F Z f q o $ > ] .._ +XbXLXLXMX|.7 g.fXZX",
"uXpXrXY , #XKXLXFX}.< X q m S F } *.F S B C b v n a s G M s M G H N g e e h ' ) ..].MXLXLX#X% 8 gXpX",
"F.F.F.4 , nXLXFXXXj X O q d Z } -.-.-.} F B v t B G B n p 0 r m G J =.=.H q < X./ ' +XFXLXnX6 8 ;XH.",
"M.V.H.4 , nXLXlX& @ 9 y B v t N Z Z Z Z Z :.:.! Z y y B H *.:.! b t B =.=.f q ^ [ [ _ cXLXnX% 4 k.Z.",
"I.3X7XY , nX2XR @ 0 p p ! =.v t f N S } -.-.D z Z Z z m m x x l y M V C N q $ ' ' ; ; lXLXnX, 2 r.P.",
">X6X!.5., nXE X 0 s s 0 Q ;.H v y g S -.:.F d t Z -.-.t 9 O + & g D M r 9 $ x  X| - 1 cXLXnX, 2 0.:X",
"H.K.W.8 6 xXE O p 0 r M y N ! H v e $ $ d F } A N -.>.} $ $  .+.U $ + O + +.=XMXvX.X<.mXLXnX6 2 8.H.",
"J.V.M.4 , xXlXW e r p p a M G ;.F q k c c k h z F &.&.} c c c k k L P P W %XGXKXKXbX@XBXLXnX, 2 k.L.",
"K.P.G.4 % nXLXlX< r p 0 s B G ;.} d c 1.$.< $ d F F Z N F F d $ <  . .$.XXzXBXKXHXbX*XGXLXnX, 2 k.>X",
":XF.F.4 6 nXLXFX+Xz r p 0 m >.J V B d c ,.,.,. .d z } t 9 d } :.&.t $ o $ }.MXHXHXNXbXHXLXnX, 2 k.;X",
"m.Z.J.8 , zXLXLXBX XN a p s N H =.;.B g x k k c U c z N N Z F A x z z h h k #.MXNXbXbXKXLXvX% 2 9.M.",
"H.8XpXh.7 ].mXLXLX%XQ e p s 0 M -.>.=.B r w e z Q k 9 A -.-.A l l A F F N @ < vX-X-XBXLXnX].6 4 0.F.",
"aXfXwX^.U.% '.LXLXbX,.$ y C s 0 y H =.K G J :.:.l @ + e N } -.:.:.Z t 9 9 X L -X=XbXKXLX'.% Y x.c.iX",
"SXhX).^.U.. #.KXLXGX#X`.u t J B p r y v V K ;.;.B N A v f d d } -.*.S e O I .X*XbXGXLXKXE   f.Y.,XSX",
"kXgXgXrX,X8 @.*XJXKXBXbXW k Z M m i i s n M H H V M ! G M f d z z c z h L .XbX&XGXLXLX*XE 2 8.z.,XZX",
"8X8XuXuXVXiX`.O.FXLXHXMX&X+.$ q A :.-.! G n n s r 0 r M ! ! =.g q o o L xX-X=XMXHXLXFX@.8 4.9.r.K.4X",
":X6X!.!.qXfXY 7 vXLXKXGXMX$X$. X$.u w e y H ;.;.! B s V s m J t @ U `.#X-X-XMXGXLXLXvX7 3 0.r.N.G.:X",
"4XqX).).).).x.I .XmXLXKXGXMX-XBXoXL L x l z Q &.Q m n C p p s @ & 2.bXMX&XMXHXKXKXMX.X7 8 [.Y.5X7X6X",
"eX/.^._.sXkXgXB.T ].mXHXLXKXMX=X%X=XvX%X&.u $ t $ @ t M C m 0 O j %X=X=XMXHXLXHXBX.X7 8.k.[.~.R./.wX",
").wXfXjXpXL.M.r.9.6 E MXKXKXHXNXGXHXMX=X%X X}.}. X,.Q w @ @ O L oXFXGXGXKXLXLXmXE 7 8.4.6.0.0XtX^.^.",
"sXdX5XH.m.y.u.u.r.8.7 @..XlXHXLXLXLXBXMXMXBXBXBXMXbX XW R T R oXHXLXLXLXKXlX.X@.3 5 l.c.6.t.m.>XaXyX",
"H.m.y.y.i.a.u.y.4X7Xd.% < o.*XmXFXFXJXLXLXLXLXLXLXLXLXLXJXLXJXKXKXFXFXnX*X@., % f.l.d.,XL.t.u.t.m.V.",
"t.u.u.u.a.i.n.9XyXR.T.g.8.4 7 , 7 #.vXHXLXLXLXLXLXLXLXLXLXLXLXLXzX#.7 6 < 8 4 3.5.c.,XiXrXD.y.t.u.u.",
"u.u.C.C.p.n.4XhX^.R.yXV.6.8.3 2 2 8 o.'.'.'.'.'.'.'.'.'.'.'.'.`.W R 7 2 2 g.c.7.6.6.N.rXkXaX6XC.i.u.",
"C.G.G.m.H.pXyX/.R.tX3Xq.N.Y.l.x.6.8., .                 #   #   3 x.l.l.l.l.x.c.7.e.t.H.ZXdXrX8XK.p.",
"I.S.S.!.hXwX^.E.tX3Xw.m.0X~.qXN.7.x.h.8.3.h.h.f.4.4.8.f.h.'.h.f.g.x.x.x.x.U.U.dX3Xy.u.t.L.hX(.T.Q.L.",
"D.D.sXsX!.E.E.wX3Xi.t.4XhXfX5Xt.B.Y.7XN.9.[.{.[.4.6.c.{.[.[.x.x.x.,X,X1X1X0XqX~.hX3Xn.a.y.J.fXwXT.A.",
"(.sXqXT.T.T.rX3XC.p.J.ZXSXjXM.p.dXfXfXn.N.[.[.c.6.6.[.[.[.c.x.c.[.1XiXVXDXAXhXqX(.jXW.m.s.m.A.rXsX~.",
"fX!.T.A.A.(.4XF.p.J.fXkXZXL.p.>XhXyXpXm.8XAXDX9Xt.p.iXSXkXrX7XeXhXAXgXuXjXZXfXeXQ.Q.pXW.M.Z.Z.A.qXfX",
"6XD.A.A.!.8XH.Z.H.eX_.tXrXS.F.aXtXyXW.F.gXSXDX3Xt.t.5XDXDXjX6XqXyXhXCX8X7XeX)././.T.Q.0XW.S.S.Z.D.4X",
">X>XI.3XL.K.G.D.tX).^.eXQ.F.8XhXsXdXK.K.AXhXrXS.a.u.J.yXZXAX9X8XsXfXhXpXI.(.^.E.^.).J.6X>XH.K.K.:X;X",
"G.P.F.M.H.P.K.rXsXeXwXwXK.>XhXfXZXpX:X8XrXW.V.m.u.u.m.W.7XdX8X>XgXZXkXjX3XI.wX/.^.eXqXI.>XH.M.F.P.P."
};
