/* XPM */
static char *result[] = {
/* columns rows colors chars-per-pixel */
"50 50 256 2 ",
"   c #FFCCFF",
".  c #FF8CFF",
"X  c #FA79FF",
"o  c #FF96FF",
"O  c #FFB7FF",
"+  c #9B68E5",
"@  c #FFC8FF",
"#  c #FFC2FF",
"$  c #F56CFF",
"%  c #6C43DF",
"&  c #FFBDFF",
"*  c #FFD4FF",
"=  c #F367FF",
"-  c #FF92FF",
";  c #EE5AFF",
":  c #845EE2",
">  c #F162FF",
",  c #FA7FFF",
"<  c #6942E2",
"1  c #FFA9FF",
"2  c #FFD8FF",
"3  c #FFB2FF",
"4  c #DB99F1",
"5  c #FF9AFF",
"6  c #CA8BEC",
"7  c #5F3ADF",
"8  c #B278EC",
"9  c #EA51FF",
"0  c #CF82F0",
"q  c #FFA6FF",
"w  c #F875FF",
"e  c #FFAFFF",
"r  c #FABBFE",
"t  c #FD84FF",
"y  c #6644E7",
"u  c #F670FF",
"i  c #5E3EE8",
"p  c #FFDCFF",
"a  c #EFB4FA",
"s  c #AA6EEA",
"d  c #FF88FF",
"f  c #6E47E3",
"g  c #B166E4",
"h  c #7244DF",
"j  c #9364E6",
"k  c #D18DED",
"l  c #8D62E3",
"z  c #CA92F1",
"x  c #7947DD",
"c  c #DA86F7",
"v  c #E9ACF8",
"b  c #FFACFF",
"n  c #BF79E6",
"m  c #F8AAFE",
"M  c #6745EA",
"N  c #633FE0",
"B  c #BF7FED",
"V  c #D589F1",
"C  c #AD77EC",
"Z  c #E08AF6",
"A  c #7452DE",
"S  c #C284EA",
"D  c #EC55FF",
"F  c #FF80FF",
"G  c #7E48D8",
"H  c #F768FF",
"J  c #8C51D9",
"K  c #FEA3FF",
"L  c #EE95FA",
"P  c #D468F6",
"I  c #F95BFF",
"U  c #D572F5",
"Y  c #E635FF",
"T  c #EA44FF",
"R  c #C264F2",
"E  c #E73BFF",
"W  c #C071EF",
"Q  c #EA3FFF",
"!  c #7443D8",
"~  c #B77BE9",
"^  c #D895EF",
"/  c #B283EE",
"(  c #FA72FF",
")  c #E0A4F7",
"_  c #945CDC",
"`  c #A166DF",
"'  c #9C5DDA",
"]  c #764DE0",
"[  c #FBB4FF",
"{  c #EF9EFB",
"}  c #F4BAFB",
"|  c #FFA0FF",
" . c #EA84F8",
".. c #A978EA",
"X. c #A070F3",
"o. c #A066E9",
"O. c #B075E4",
"+. c #AB79F6",
"@. c #FA87FF",
"#. c #C36BF1",
"$. c #F6A5FD",
"%. c #6D4ADE",
"&. c #CA64F4",
"*. c #E94AFF",
"=. c #7347E0",
"-. c #FF74FF",
";. c #8356E2",
":. c #AA67E0",
">. c #9554D4",
",. c #A465EA",
"<. c #C077F1",
"1. c #E06DF8",
"2. c #E693FB",
"3. c #D07BF5",
"4. c #7D4CE1",
"5. c #EC4AFF",
"6. c #E7A5F6",
"7. c #F693FC",
"8. c #E49BF5",
"9. c #8859E4",
"0. c #754BE5",
"q. c #D680F5",
"w. c #F379FD",
"e. c #9760E3",
"r. c #F69EFB",
"t. c #8552DF",
"y. c #FDD1FF",
"u. c #DEB2F9",
"i. c #BE88F0",
"p. c #7B52E1",
"a. c #6347F0",
"s. c #673DDF",
"d. c #F37EFD",
"f. c #C488F4",
"g. c #B87AF0",
"h. c #FD8FFF",
"j. c #A65FDE",
"k. c #B56BED",
"l. c #C476EF",
"z. c #7F51E8",
"x. c #CA7AF2",
"c. c #F88EFE",
"v. c #F187FB",
"b. c #F249FF",
"n. c #EF8EFA",
"m. c #C680F2",
"M. c #B671EE",
"N. c #EE79FC",
"B. c #BB68EF",
"V. c #D298F6",
"C. c #C96BF4",
"Z. c #7C58E1",
"A. c #AC83F6",
"S. c #975FF1",
"D. c #C290F0",
"F. c #F6B3FC",
"G. c #CB86F1",
"H. c #CA73F2",
"J. c #9F6DEB",
"K. c #B66DE5",
"L. c #F15DFF",
"P. c #6E49E8",
"I. c #864ACF",
"U. c #DE7CF6",
"Y. c #DF81F5",
"T. c #A26DE6",
"R. c #FF69FF",
"E. c #FA65FF",
"W. c #B78CF7",
"Q. c #D261F6",
"!. c #FBA7FE",
"~. c #FBC6FE",
"^. c #FB9EFF",
"/. c #D964F8",
"(. c #CC9AF2",
"). c #9054DC",
"_. c #E1AAF5",
"`. c #F2ABFC",
"'. c #E091F6",
"]. c #FFE3FF",
"[. c #7C46D4",
"{. c #E76CFB",
"}. c #DD9FF4",
"|. c #7A4AF1",
" X c #F051FF",
".X c #D393F0",
"XX c #C883EC",
"oX c #E7B2F8",
"OX c #BA81F7",
"+X c #B65BE8",
"@X c #F074FD",
"#X c #946BF1",
"$X c #F7BDFD",
"%X c #B681F0",
"&X c #B88CF0",
"*X c #D2A2F4",
"=X c #8F58E2",
"-X c #9A56DE",
";X c #8A4EF2",
":X c #F7AFFD",
">X c #7E5AF0",
",X c #EFA4FB",
"<X c #985EE9",
"1X c #EA9EFD",
"2X c #905AE6",
"3X c #EE6CFD",
"4X c #EEACF7",
"5X c #6E4BF1",
"6X c #A56FE7",
"7X c #F952FF",
"8X c #EDC5FA",
"9X c #BF48F1",
"0X c #B861F0",
"qX c #A252EE",
"wX c #EBB9F9",
"eX c #AE6EE0",
"rX c #9D68EF",
"tX c #F487FD",
"yX c #8157E7",
"uX c #A964EB",
"iX c #8A4BE3",
"pX c #EA8DF8",
"aX c #C57DE8",
"sX c #6E43D8",
"dX c #DA8EF3",
"fX c #E8A1F6",
"gX c #E774FB",
"hX c #FBC2FF",
"jX c #B367ED",
"kX c #B952F6",
"lX c #AA5DE5",
"zX c #E57BFA",
"xX c #A05FE3",
"cX c #DF76F7",
"vX c #E544FE",
"bX c #8F5EE6",
"nX c #A94FE1",
"mX c #AE70F0",
"MX c #B251E4",
"NX c #F8C8FC",
"BX c #974AEE",
"VX c #CE55F1",
"CX c #D142F8",
"ZX c #CA4DF2",
"AX c #FFEBFF",
"SX c #E45AFC",
"DX c #E682F8",
"FX c #E996F7",
"GX c #C460EC",
"HX c #C29CF3",
"JX c #D6A8F5",
"KX c #D056F3",
"LX c #DD54FB",
"PX c #8765F5",
"IX c #D552F4",
"UX c #DC58FA",
/* pixels */
"X.X.+ >.s W.g.8.| d., n.B D.F.e # oX&X(.{ x.g J M M J l.2.m i...v & e a 8 k.v.$ > . Y.C A.xX' ..+.X.",
"/ A.+.K.n z <.&.tXw $ , U.m._.# 3 !.G.(.@ :X{ K.f y g m   NX..8 K 5 b 6 <XU.u 9 $ DXqXrXO.n B OXW./ ",
"V lXqXBXlX0 }.C.Q.d.X d c.U V F.q - DXV.NX* p 4 h < k * p 6.2X0 - - 6.j s ^.w X  .qX;XO.^ H.kX0XGX^ ",
"O Y.MXBX;X-XXX) U 1.h.| b L dXv # 1 F.u.8X@ y.a x % }.2 * S z.8.q e / yX6 * # FX-X|.e.4 U 9X9XZXpXO ",
"U.O { +XiX|.J n a zXw.| O r `.oXy.2   v 8X# @ a x % 6.2   e.2X:Xb fXz.+ F.,Xk t.|.;.k gXCXCXIX^.[ U ",
"+XP c.b n G 5XG aX[ 3X, 3 *   NX  [ c ,Xy.y.p v h f 8.y.a h 8 | - s =.6.2 V G 5Xf O.c.vXCXSXK L GX+X",
"OXH.KX@X3 aX! a.! 6 b ; u q   2.W ' >.c &   @ V < f 0 e XX7 4 q L % ~ o 1 k y y G v K = , b 0 nX,.+.",
"9.%XV.Z L @ n ! a.! 6 | 9 w @ a W >.I.' l.q.q.g y 0.g q.2Xf }   T.] 7.> 7.9.N O.a 1X} :X^ :.=X#X#Xz.",
"M =.s u.wX:X& 6 G a.! .X5 > 5 # @ 8.j.I.>.j.g ' y 0.g l.=.bX2 wXs.B -.t ..7 S 5 b r g I.G >XPX>XP.M ",
"% y sX` v c.$ o fX_ i x 4 . 9 = h.# hXl.W '.2.l.y z.c '.% z * s ;.@.-.XX7 ~ t E = :X>.sX5X>X0.% % sX",
"n e.f s._ 8.t *.= $.` i x 4 t 9 L.u e @ & * p 4X< <X& V.=.F.!.] 0 F Z < + - vX; K eX% a.P.! [.J ` n ",
"^.m ^ + s.x 6 o ; ; q ` i =.^ d > $ X O 2 & # $Xh C ]./ bX@ g.9.| r.p.4.m X t { ` < a.% I.j.G.v [ | ",
"> L.X r.6 p.7 e.{ F ( m ` i =.8.. $ w o @ 1 1 r x &XAXj i.@ p.V 3 j < 6.K 1 ^ G i y [.j..X$X# ^.w.= ",
"7.,  XT H n.~ % h 6 o F K O.i t.r.> ; X O 3 & NXx i.y.t.} z 2X- x.% '.d K S % i ! ' 4 hXO o X w d 7.",
"&Xz FX,  XQ H pX+ 7 j L F @.S N + - ; X @ 2 2 $X=.<.2.9.* l U.tXA 0 E.@.~ N < ).k hX& h.$ $ t r.) D.",
"+.X.#X..G. .H 7Xu V Z.%.XX( ( G.N 6Xo 1 ~.`.`.c f uX,.C }.j 3 9.M.R.d...7 x n } O - X X , v.fX*XHX/ ",
"0 ~ J.>XP.0.6XZ w I w.M.%.+ N.-.0 N s 2 r H.k.K.=.xXt.<.<Xu./ j d v.l 7 ` 6.1 , = ( t 5 m oXu.*Xk V ",
"3 [ ,XdX~ bXN N + q.I I {.e.: U R.3.% G.@ $Xx.g ] ,.<Xz C _.9.F  .p.=.k K $ Q Q *.D > u d.n.r.r & 3 ",
"& o ( H $ w.Y.B l A l #.> -.U : uXR.U A Z e hX1X2X<.i.D.c o.N.U.%.+ { ( T Y Y E E T *.9 ; > H , b # ",
"JX6.L v.w H I I H gXM.: Z.,.gXF k.j {./.l d.1 ].%X(.z 0 M.cXH.%.B .  XE *.*.T Q Q T *.*.9 L.u 7.a _.",
"<X+ J.+ T.C B q.N.( -.d Y.o.Z.<XU.cX,.P Q.,.d O z (.0 l.U #.: '.F 9 9 D D ; 9 *.*.9 ; $ tX{ 6.V.%Xo.",
"' ` ` + l p.%.%.A : + M.Y.h.@.U uXk.P 0X&.R <.b *Xz x.H.k.s w.L.*.*.*.T T 9 ; = X - b & a 4 n :.' _ ",
"OXf.q.Y.DX .DXq.x.M.o.l : : + M.P Q.R &.R C.jX) oXi.m.jXC.L.Q E E Y E b.H d K 3 4X4 S :.-X).=X<XX.+.",
"W.f.3./.LXvXQ Q 7X7Xb. X; SXQ.R B.B.#.#.#.<.B i.V.8 D.L F ( u $ @XN.DXc G.8 + t.h s.7 i M |.;XS.X.A.",
"eXO.S 6 dX2.n.pXZ Y.cX1.1.1.1././.Q.R B.M.s J./ g./ u.V.B 8 J.j : : Z.A A ] A Z.: l l _ _ _ ' ' ` :.",
"eX` ' _ ).t.t.p.0.f %.%.%.A A : l + s k.W G.u.u.i.8 8 C C g.B x.U {.3X@X@Xw.N.N.N.w.d.v.pX'.k S ~ O.",
"+.X.S.;X|.y N s.% t.+ ~ 6 '.pXd.$ L.b.b.b.-.) &XmX}.i.l.W #.B.R jXjX0XR P {.3XH I b.T Q vXUXP 3.m.OX",
"+.J.e.).-Xj.K.n ^ :Xq o F = 5.Q Y Y Y Y  XB.k.D.g.v 2.B.C.R &.R Q./.C.,.: A Z.: + 8 m.c Z Z V 0 f.%X",
").-XeX6 ) $X* * q u D 9 D ; > > ; *.7X{.T.R H.D.g.*X5 R B.P 0XQ.B.,.#.d.- n.x.s j Z.A %.] ;.bXe._ _ ",
",.D.) ,Xr.m   ^.D *.5.D > $ u = = . G.: P C.H.z o.%X  o T.R 1.o.P {.uX: j x.h.F R.3XgXq.m.~ C ..J.<X",
"v F.@.> ; X & = Q Y E T 9 D D , $.T.A {.&.#.G.&X=X4.V r [ p.C.w.+ uX$ = 0X: Z.,.U > b.7XE.H w 7.4X) ",
"* O , = > c.y., T Y Y Y E ; 5 4 ] p.d.P s q.i.o.G % I.g 1XG.7 <.-.B.: R R.I P + A : 8 0 Y.N.w t O * ",
"r wXv FX{ } hX& $ *.Q 5., m O.7 l h.N.;.a J.k.x [.f >.K.2.* S 7 <.R.1.l l 1.7XI DX6XN i p.+ 8 6 _.r ",
"z HXJXu.8Xa ~.q u = h.3 ^ t.7 .., d ;.(.*XiXe.sX[.f j.3.m *   ~ N B R.= 8 A s N.I ( Z + =.Z.>X#X..6 ",
"W.f.q.zXn.!.o w h.O v :.% < XXH E.T.o.O yXk.z.J ).0.Z # * [ t - ~ N XXH I c ;.A XXw.R.- k xXo.o.X.A.",
"V DX@X$ w X 5 # F.n G i % k w I <.;.t H.j V % c mX] @ 2 [ . w ; h.T.7 ~ , E.c.C s.l V - # O tX .q.XX",
"@.$ L., K & } XXJ < a.! k q d 0 %.U.-.9._.*X4.2 i.4.  # 1 o d X w $.t.i T.r.X d 4 p.7 j S `.( 5.H @.",
"@X@.1 r ) B >.! a.y J 4 # & ^ 7 8 d l.=X@ ..J.AX/ 4.@ @ & O e q - 1 4 x i _ `.w $ r.O.N y e.fXh.= 3X",
"!.`..Xs J [.y a.! O.$.5 b 6.s.j t , : 0 & 9.D.AX..h NXp y.@ O K . X | ^ x i _ $. XE t k =.M ;.S ,X^.",
":.J G ! % 5XM [..Xo ; = $.4.] n.-.<.;.3 a h oX# 2X% 8.  2 2 @ 1 d u > h.4 x i ` r.L.E 5 S sXf < t.:.",
"% < < P.5X0.I.4 5 vX*.o + N dX-.v.] B ].%X% 2.x.0.y g c m @ 2 @ | X = D . }.G i _ 8.5 & 1XlXG % y % ",
"M f z.>Xp.I.k 3 = D o O.7 B F t C % } O z.4.W j.f M >.j.W L # p hXo , u D o 4 G i x eX1X$Xv f.=Xh y ",
"yX#X#X).:.6.| $ D o S 7 T.@.; L % 8 p v s.s 2.g f M ' W Z r * r ^.h.t X $ ; | ^ G a.sXg ~.{ '.V.C yX",
"mXlXnX0 [ @.L.D - 6 N t.r.H d 6X] 7.1 z s._.* dXP.f l.$.@ 2 [ h.. . . . d X > b .X[.a.! n 3 gXVX#.g.",
"MXGXr.K 1.LXSXc.6 0.h k O e ^ % B . - 6X;.r p v f =.fXp y.`.c.- 5 m :Xr # e v.3X[ 6 I.5Xx K.e tXVX9X",
"zX1 v.ZXZXKXn.6 ;.0.K.# 2 } =XyX4Xb m 9...# @ v h 4.} 2 & 1XL !.# y.8X8X*   [  .zXa aXJ |.iXMXL K 1.",
"e 1.9XkX9XY.^ e.z.g !.& @ n z.B 3 | 8.: .X@ * }.% 4.a * & { c 7.3   wXu.wX# 1 c./.P ) XX-X;XBXnXY.e ",
"0 +XkXkX3..X6X;Xg 7., o L <XrX,Xo o l.j a * p 6 < =.4 2 2 } 0 DXo e $XV.c h.w = 3XVX&.}.aX:.qXqX+XV ",
"/ W.OXB n C rX+X7.w = d H.rX(.3 K $.C C ~.F.2.j.M < g $.@ NX(.z !.b O ) W cX$ D > N.GXm.i.eXO.+.A./ ",
"rXX.+ >.o.A.C 8.K , t n.8 &X:X1 # _.A.D.{ x.:.J M M J W Z $.z &XoX# O } i.W v.u = . Z g.W.xX>.T.+.X."
};
