/* XPM */
static char *result[] = {
/* columns rows colors chars-per-pixel */
"50 50 248 2 ",
"   c #570A06",
".  c #530D11",
"X  c #68160B",
"o  c #6F110E",
"O  c #771707",
"+  c #79250F",
"@  c #5A152C",
"#  c #661A2D",
"$  c #752C33",
"%  c #681D50",
"&  c #722A4D",
"*  c #5B2574",
"=  c #6A2D73",
"-  c #880C0A",
";  c #871A09",
":  c #8A1B12",
">  c #961A13",
",  c #A81812",
"<  c #B11F12",
"1  c #8E2B0E",
"2  c #872814",
"3  c #972B15",
"4  c #983518",
"5  c #A42A09",
"6  c #B42E0C",
"7  c #A8370E",
"8  c #A72818",
"9  c #B72716",
"0  c #A83616",
"q  c #B93618",
"w  c #861A2E",
"e  c #8B2F2C",
"r  c #AF372A",
"t  c #CD3516",
"y  c #C6361A",
"u  c #C53C20",
"i  c #AC471A",
"p  c #B7461C",
"a  c #B5521E",
"s  c #93482C",
"d  c #A84727",
"f  c #BA4A23",
"g  c #AD542F",
"h  c #BA5629",
"j  c #B96A32",
"k  c #C6471B",
"l  c #DB441C",
"z  c #E04B1F",
"x  c #C94A25",
"c  c #D64D24",
"v  c #C85628",
"b  c #C45B2B",
"n  c #D85527",
"m  c #CA5A34",
"M  c #D75C31",
"N  c #E14E21",
"B  c #E25525",
"V  c #E45B2A",
"C  c #C9632D",
"Z  c #CA6834",
"A  c #D06F35",
"S  c #D86935",
"D  c #D8773A",
"F  c #E86731",
"G  c #E26834",
"H  c #E36A34",
"J  c #EA6C34",
"K  c #E7773D",
"L  c #EB7439",
"P  c #88355B",
"I  c #903453",
"U  c #9C2863",
"Y  c #8A336D",
"T  c #AE474E",
"R  c #A24E5E",
"E  c #964B70",
"W  c #D57D42",
"Q  c #E77C42",
"!  c #F07E40",
"~  c #DC833F",
"^  c #CA8A4F",
"/  c #DB8644",
"(  c #E98544",
")  c #F38A48",
"_  c #E8924B",
"`  c #E89854",
"'  c #F29751",
"]  c #EAA559",
"[  c #F4A55B",
"{  c #EEB867",
"}  c #F5C76F",
"|  c #703488",
" . c #6435B1",
".. c #7D4394",
"X. c #7745AD",
"o. c #5C38D3",
"O. c #5F3ADF",
"+. c #673DDF",
"@. c #5E3EE8",
"#. c #633FE0",
"$. c #6C43DD",
"%. c #6D4ADE",
"&. c #7343DB",
"*. c #7A47D9",
"=. c #7E48D8",
"-. c #7850D3",
";. c #6644E7",
":. c #6C45E3",
">. c #6745EA",
",. c #6E49E8",
"<. c #7749E0",
"1. c #754CE3",
"2. c #7D53E4",
"3. c #6347F0",
"4. c #6E4BF1",
"5. c #7A4AF1",
"6. c #7E5AF0",
"7. c #B13796",
"8. c #C333A0",
"9. c #8D4793",
"0. c #AF508B",
"q. c #AB669F",
"w. c #944FB1",
"e. c #B650AA",
"r. c #C04291",
"t. c #C556B3",
"y. c #C96CB2",
"u. c #D237CC",
"i. c #D737E0",
"p. c #E93DFF",
"a. c #864ACF",
"s. c #8F52C6",
"d. c #8552DF",
"f. c #8C51D9",
"g. c #9759DA",
"h. c #B45BCE",
"j. c #A55EDC",
"k. c #B470C7",
"l. c #A166DE",
"z. c #8256E4",
"x. c #845EE2",
"c. c #8C5AE4",
"v. c #9350EC",
"b. c #955DE8",
"n. c #8A4EF2",
"m. c #A459E8",
"M. c #B558E7",
"N. c #B251ED",
"B. c #BF48F1",
"V. c #8D62E3",
"C. c #9562E4",
"Z. c #9B68E5",
"A. c #9E6AED",
"S. c #8765F5",
"D. c #946BF1",
"F. c #AA67E0",
"G. c #A46EE7",
"H. c #A96BE7",
"J. c #B166E4",
"K. c #B76DE7",
"L. c #AB77EB",
"P. c #B174E6",
"I. c #BF79E6",
"U. c #B479EB",
"Y. c #BF7FED",
"T. c #A070F3",
"R. c #AB78F5",
"E. c #B875F0",
"W. c #CD5CC7",
"Q. c #D66FCE",
"!. c #CE4FF2",
"~. c #D755F7",
"^. c #E746FD",
"/. c #F249FF",
"(. c #EB53FF",
"). c #E45AFC",
"_. c #EE5AFF",
"`. c #F459FF",
"'. c #C460EC",
"]. c #C274EF",
"[. c #C57DE8",
"{. c #C669F3",
"}. c #D566F7",
"|. c #C977F2",
" X c #D777F5",
".X c #EC72E7",
"XX c #E86CFB",
"oX c #F265FF",
"OX c #F66AFF",
"+X c #FD68FF",
"@X c #E878FB",
"#X c #F571FF",
"$X c #FA74FF",
"%X c #F37BFD",
"&X c #FA7DFF",
"*X c #C98AB4",
"=X c #B283EE",
"-X c #AC83F6",
";X c #B987F3",
":X c #D48DCC",
">X c #E28FDC",
",X c #E0A9D1",
"<X c #C484EB",
"1X c #CA8BEC",
"2X c #D18DED",
"3X c #D999E6",
"4X c #D895EF",
"5X c #C584F3",
"6X c #CE83F0",
"7X c #D680F5",
"8X c #DD83F6",
"9X c #D78BF2",
"0X c #C895F1",
"qX c #D395F3",
"wX c #DC9BF2",
"eX c #E383E7",
"rX c #E586F7",
"tX c #EE8EF9",
"yX c #F688F2",
"uX c #F287FC",
"iX c #FD84FF",
"pX c #FD8CFF",
"aX c #E896F8",
"sX c #EE9EFC",
"dX c #FF94FF",
"fX c #F698FC",
"gX c #FE9BFF",
"hX c #D4A5F5",
"jX c #DEB2F9",
"kX c #E4A5F7",
"lX c #E9A6F8",
"zX c #E9ACF8",
"xX c #F6A5FC",
"cX c #FEA3FF",
"vX c #F5ADFD",
"bX c #FDACFF",
"nX c #E9B6F9",
"mX c #EFB4FA",
"MX c #F6B3FB",
"NX c #FEB5FF",
"BX c #F5BBFC",
"VX c #FDBCFF",
"CX c #EDC5FA",
"ZX c #FEC2FF",
"AX c #FECAFF",
"SX c #FED3FF",
"DX c #FFDAFF",
"FX c #FFE3FF",
/* pixels */
"T.T.C.g.H.;XE.aXcX%X&XtXY.0XBXbXZXnX;X0XsX|.J.f.>.>.f.|.aXxX;XL.zXVXNXmXU.K.tXOXoXpXrXL.-XZ.g.L.R.A.",
"=X-XE.K.[.1XE.{.uX$XOXiX X|.kXZXNXcX<XhXAXvXlXK.:.;.F.bXAXAXL.U.cXdXbX1Xb. X$X(.oXrXm.A.P.I.[.;X;X-X",
"9Xm.m.v.M.6XkX{.}.@X$XiXfX X7XNXcXdXrXqXAXSXDXwX&.:.2XSXDXkXc.6XdXdXlXC.H.gX$X$X@Xm.n.H.qX{.B.J.{.wX",
"NX8XN.v.n.b.<XkX XXXdXcXbXaX9XzXZXbXvXjXCXAXSXmX*.:.wXDXSX<X2.aXcXbX=Xz.2XSXZXaXg.5.b.wX XB.!.!.tXNX",
" XVXsXM.d.5.f.I.mX@X%XgXNXVXzXnXSXDXAXzXCXZXAXmX*.%.lXSXSXC.c.vXbXlXz.Z.NXlX1Xd.5.z.1X@X!.!.!.gXNX X",
"M.}.pXbX[.*.4.=.[.NXXXiXNXSXAXAXAXNX8XlXAXSXDXzX$.:.aXSXmX&.U.cXdXH.:.lXDX9X=.,.:.K.pX^.!.^.cXtX'.M.",
";X|.~.%XNX[.+.>.&.1XbX_.OXcXAXaXE.g.g.7XVXAXAX9X:.:.7XNX<X#.wXcXaX:.U.dXbX2X;.;.d.zXcXoX$XbX7Xm.H.T.",
"c.;XqX9XtXZX[.*.>.&.1XcX(.$XAXmX].g.a.j.[. X7XJ.;.1.J. Xc.:.BXAXZ.*.fXoXdXz.#.P.mXsXBXvX9XF.c.D.D.2.",
";.<.H.nXnXvXZX1X=.3.&.qXdXoXdXZXAXaXj.a.f.j.J.g.;.1.H.|.,.c.DXnX+.Y.$XiXL.O.<XdXbXNXJ.a.=.6.S.6.4.;.",
"+.;.+.Z.zXfXOXdXlXg.@.*.wXpX(.oXpXZXZX|.w.E E Y * -.7XqX:.0XSXH.z.iX$X6X+.U.iXp.oXvXg.$.4.6.1.$.+.&.",
"I.C.&.+.g.aXiX^.oXxXl.@.*.wXiX(._.#XxX,XR O o X # 9.>X*X .,XbX1.6XiX9X%.Z.dX^._.cXl.$.3.,.&.*.f.l.[.",
"gXbX4XZ.#.*.1XdX_._.cXl.@.*.4XyXoXOXW.$ d v M q , # $ # # 0.E.c.gXxX2.%.vX$XiXsXl.&.3.:.a.j.1XzXNXgX",
"oX_.&XxX1X2.+.C.lX&X$XbXl.@.+.aXpXr.U 2 8 u c n M r 0 4 2 I = E 0.= * 0.0.0.E =  .;.-.j.2XBXZXcX%XoX",
"tXiX/.^.OXtXU.&.<.1XdXiXcXP.o.=.>X& o 9 , > l F Q G V V x 0 X X X X X X   X X X % w.2XZXVXdX$X$XpXtX",
";X0XaXiX/.p.+XtXZ.+.V.aX&X.XY @ % .   o X 2 S c 9 q c l n D ^ A b Z b x v b Z m d $ :XdXOXOXiXxXkX;X",
"R.T.D.L.1XrXOX/.OX9X2.%.k.0.$ O ; ; 2 4 4 d m r o 3 q N F ! ` S n J V n c S J c 3   t.&X&XuXkXhX0X=X",
"6XU.T.z.,.1.G.8X$X`.%XK.*   ; 6 l l V ) ) ~ 6 O     4 F ( L l < , t t u 9 t t , -   t.dXbXnXjXqX2X9X",
"NXNXxX9XU.c.;.#.G.7X`.`.r.1 v G V J J V V B N A ^ h p 6 4 0 V V S V V B n G L n 4   e.OX%XtXsXVXVXNX",
"VXdX$XOXOX%XrX<XV.1.V.].r.1 p b c D J V N N B ( _ ( S i 3 4 c C h f f a f h m x r % u.(._.oXOX$XbXZX",
"hXlXaXuX$XOX`.`.OX@XU.6.=   o ; 1 p S ) L B z l n [ [ ) H k 5 O X         X .   U ^.^.^.(.`.#XfXmXkX",
"b.G.A.Z.G.L.Y.7X@X$X.X0.e 4 4 0 i v S H V N B B V L m x H G k f d r 1 O     . U 8.^.(.OXuXsXlXqX=XZ.",
"g.l.l.Z.V.2.:.%.-.-.9.@ + a b b C D D C v N B n c z u 9 S H c S G F x 0 2 + w 0.Q.dXbXVXmXwX[.J.j.g.",
"R.0X7XrX@XrX@X X|.Y .   X 7 C ~ _ _ _ _ ~ V z t 6 n V V c u , , 9 F L Q Q S v e E wX|.F.g.f.c.b.T.R.",
";X5X X}.~.^.^.i.7.w O ; 7 p p C D D D D A A ~ ~ C M c k c n x m Z B n m L ! S 4 & #.@.@.4.5.n.b.T.-X",
"P.P.<X1X9XtXeXq.. - < y c G q 7 a v v C j D ] ] ~ C p 7 x H ( ` _ t q q n J D 0 P c.V.g.g.g.j.g.Z.l.",
"l.l.g.g.c.d.= # - 9 c < m [ J k 5 p C ~ ] ] D g 0 C D / p 5 w + 2 8 v L B k 5 X I %XuXiXtX4X2X;XI.P.",
"R.T.D.n.5.>.% o < y u y m W Q M p p i g j ~ A h 0 C / [ C 3 o & I R T d 5 1 : U 8./.^.^.^.~.}. X5X;X",
"R.G.C.g.b.M.& o t < , c u 6 S ) J 7 + . X i ~ / A b / { / i   9.'.'.Y   . . @ X.A.U.5X8X9XrX9X6X5X=X",
"f.g.F.1XkXBX,Xq.w , t < q c n L [ a r e.w.E e 4 i D ~ D D A j T s % ..q.y.y.q.l.C.2.2.%.%.z.C.C.b.g.",
"H.0XlXlXfXbXSX:XU u y < q c G Q ) v g 9.W.h.Y R T j A A h b C j a s E ....9.t..X$XXX@X7X6XU.L.L.G.b.",
"lXvXiXoX_.$XVXOXp.U 8 t y , ` ` l V k 5 0.'.qX;Xs.e h _ 0 - - C ] } j +     . w. XoX/.`.oXOX$XfXzXlX",
"SXVX&XoXoXfXAXiXp.u.r.9 9 y x M J _ ( c T R P P P = I f b Z C A C j h a j s s & | x.U.|.@X@X$XiXVXSX",
"VXnXnXaXsXBXZXVXOX(.u.r 8 c 9 u S ' ' L x 8 2 4 g 9.P O h / _ D C i h A D Z g X P L.+.@.1.Z.U.1XkXVX",
"0X0XhXjXCXmXZXxX#XoXQ.$ 3 V t y , c Q ) L J ( [ ] r -   ; p D ( ` { / f > > -   P $XrXZ.%.2.6.D.L.1X",
";X5X7X@XtXcXdX$XpXNX3X9.& 8 M V u u q f c V L ) ' v f g a k p f j ` / D h 3 X & w.%X+XdX2Xm.G.Z.T.-X",
"9XrX@XOX$X&XgXZXMX[.=.#.| $ j S V r 8 8 y N V J ! V S K H n 0 0 i j A A j s & w.$.C.9XdXZXNXiXrX7X<X",
"pXOX_.&XcXVXBX<Xf.:.3.&.[.y.I 1 q ~ ` K J V N l c < , 8 n J Q Q A i + X X R Q.&X3X2.@.V.<XvX#X^.OXiX",
"@XiXbXVXkX<Xf.&.3.;.f.wXVXmXq.= E T g g p k F K Q M x y c n x G C O I * * ..zX$XOXsXP.$.;.C.lXdXoXXX",
"cXvXqXH.f.*.;.>.&.P.xXdXbXlXo.C.iXY @ o e r W ` [ ( S V N y , x p   0.4X%.@.V.xX/.p.iX2X%.;.d.<XxXgX",
"F.f.=.&.:.4.;.*.2XgX_.OXxX=.%.tX$Xk.X.:X*X| e 4 d 2 3 0 c B c 9 >   0.pXhX*.@.l.fXoXp.dX<X&.$.;.z.F.",
":.#.#.,.4.1.a.wXgX^.^.dXZ.+.9X$XuX1.Y.FX=X .E U P % I T g 0 i : w P t.(.pXwX=.@.g.aXgXZXsXm.a.:.;.$.",
">.:.z.S.2.a.2XNXoX(.fXP.+.;XiXiXL.:.mXNXn.z.E.F.:.>.f.j.&       e yX$X$X(.dXwX=.;.%.F.sXBXzX5Xc.%.>.",
"z.D.C.f.l.lXgXOX_.dX<XO.G.iX_.tX:.U.DXzX+.G.aXJ.,.>.g.E.W.*X*X*XQ.fXiX$XOX_.cX4X=.>.$.l.AXlXaXqXL.2.",
"R.M.m.6XNXiXoX(.dX1X+.d.fXOXpXG.*.fXbX0X+.kXSX9X,.,.].xXAXDXNXdXpXpXpXpXpX&XoXbXqX*.3.&.I.NX@X!.{.U.",
"N.'.fXcX X~.).pX1X1.&.2XVXbX4X$.<XpXdXG.z.VXDXzX:.<.aXDXSXvXpXdXdXvXNXVXZXNXuXoXMX1Xa.4.&.J.bXiX!.B.",
"@XcXuX!.!.~.uX1Xz.1.K.ZXDXBXc.z.zXbXbXz.L.ZXZXzX+.d.BXDXVXsXtXxXZXSXCXCXSXAXNXrX@XmX[.f.5.v.M.aXcXXX",
"NXXXB.N.B. XwXb.2.J.cXVXZXI.z.Y.NXcXkXd.qXAXSXkX$.2.mXSXVXsX8XfXNXAXnXjXnXZXcXfX}.}.kX<Xg.n.v.N.8XNX",
"6XJ.B.N. XqXG.n.J.fX&XdXaXb.A.xXdXdX].C.mXSXDX1X#.&.wXDXDXBX6XrXdXNXBXqX8XdX$XoX#X!.}.wX|.j.m.v.M.9X",
"=X;XE.;X[.L.A.M.fX$XoXpX|.A.qXNXcXxXL.L.AXMXaXm.>.:.J.xXAXZXqX0XcXbXNXkXE.@XoX(.oX@X'.5X5XP.P.L.-X=X",
"A.T.Z.g.A.R.L.aXcXiXiXtXU.;XvXcXZXkX-X0XsX|.l.f.>.>.f.].9XxX0X;XnXZXNXBX<XE.uX#XOXpXrXU.;Xb.g.G.R.T."
};
