/* XPM */
static char *result[] = {
/* columns rows colors chars-per-pixel */
"50 50 238 2 ",
"   c #3C2615",
".  c #3B2231",
"X  c #462C1B",
"o  c #493322",
"O  c #54342F",
"+  c #5A2D3D",
"@  c #6D4A33",
"#  c #76523A",
"$  c #371F43",
"%  c #573848",
"&  c #482B5B",
"*  c #583757",
"=  c #663D4C",
"-  c #5A3870",
";  c #6B3367",
":  c #70504F",
">  c #706054",
",  c #764C69",
"<  c #7A5669",
"1  c #755077",
"2  c #7D6867",
"3  c #855E38",
"4  c #853E79",
"5  c #845F44",
"6  c #825B49",
"7  c #A37F54",
"8  c #825274",
"9  c #8E736F",
"0  c #896677",
"q  c #986A7C",
"w  c #A37375",
"e  c #A48567",
"r  c #B2946D",
"t  c #AE8F70",
"y  c #AE9475",
"u  c #B69B79",
"i  c #CCA777",
"p  c #C8A779",
"a  c #D1AE7F",
"s  c #543493",
"d  c #6C3A80",
"f  c #4931A7",
"g  c #5734A3",
"h  c #6E4787",
"j  c #764C87",
"k  c #694499",
"l  c #6643AB",
"z  c #7A4DA2",
"x  c #794DAD",
"c  c #6943BA",
"v  c #583AC6",
"b  c #683DD7",
"n  c #7B48C4",
"m  c #6642D8",
"M  c #6C43DD",
"N  c #7645D9",
"B  c #7E48D8",
"V  c #6C45E3",
"C  c #6946E7",
"Z  c #6745EA",
"A  c #744AE3",
"S  c #7E51E7",
"D  c #6B4AF1",
"F  c #7A4AF1",
"G  c #7E5AF0",
"H  c #885988",
"J  c #915C94",
"K  c #AB599E",
"L  c #996C8B",
"P  c #B3798B",
"I  c #A77191",
"U  c #8A5DA9",
"Y  c #8D58B3",
"T  c #B053B3",
"R  c #9769AA",
"E  c #9D6CB1",
"W  c #AA77A9",
"Q  c #B368B1",
"!  c #A977B4",
"~  c #B379B7",
"^  c #CC6EB8",
"/  c #BE3BCE",
"(  c #884BC9",
")  c #9058C4",
"_  c #8C51D9",
"`  c #8854DB",
"'  c #9757DA",
"]  c #9067D0",
"[  c #AE74CC",
"{  c #A169DE",
"}  c #924AEA",
"|  c #8657E4",
" . c #965DE8",
".. c #8A4EF2",
"X. c #A94FE1",
"o. c #A458E9",
"O. c #B558E7",
"+. c #BF48F1",
"@. c #B952F6",
"#. c #9A66E9",
"$. c #8765F5",
"%. c #946BF1",
"&. c #A86AE5",
"*. c #B369E5",
"=. c #AA77EA",
"-. c #BF7AE6",
";. c #B679E9",
":. c #A270F3",
">. c #AB79F6",
",. c #B874F0",
"<. c #CF58DA",
"1. c #CB76D0",
"2. c #CE4CF4",
"3. c #D555F5",
"4. c #E54DF7",
"5. c #E856FD",
"6. c #F15AFF",
"7. c #C663EA",
"8. c #C377EB",
"9. c #C868F3",
"0. c #D46AF5",
"q. c #C876F2",
"w. c #D977F6",
"e. c #E97AE5",
"r. c #E66BFA",
"t. c #F265FF",
"y. c #F56CFF",
"u. c #E878FB",
"i. c #F476FE",
"p. c #FA7DFF",
"a. c #9A828C",
"s. c #B68E8A",
"d. c #B2A391",
"f. c #BAA896",
"g. c #AE83AB",
"h. c #AB87B2",
"j. c #B78ABB",
"k. c #B596B5",
"l. c #B99AB9",
"z. c #B8AFA7",
"x. c #BEB6B1",
"c. c #C4AA88",
"v. c #D1AF81",
"b. c #CBB18A",
"n. c #D4B385",
"m. c #D8B98C",
"M. c #C7B79D",
"N. c #CDB79B",
"B. c #D6BD97",
"V. c #DBBD92",
"C. c #C894B6",
"Z. c #C9BBAD",
"A. c #D1A4B9",
"S. c #C7BDB6",
"D. c #DDC198",
"F. c #E1C59D",
"G. c #E2C79C",
"H. c #DCC5A3",
"J. c #D2C6BB",
"K. c #E5CDA3",
"L. c #E7CCA5",
"P. c #E4CDAB",
"I. c #E7D0A8",
"U. c #EAD3AC",
"Y. c #F0D2AE",
"T. c #E6D2B0",
"R. c #ECD6B3",
"E. c #EED9B4",
"W. c #EEDBBB",
"Q. c #F2DEBC",
"!. c #F8DDBC",
"~. c #F2E0BE",
"^. c #BA89CC",
"/. c #B283EE",
"(. c #AC83F6",
"). c #B981F6",
"_. c #B78CF7",
"`. c #BB8AF0",
"'. c #D091CD",
"]. c #D997D8",
"[. c #E587DE",
"{. c #D7A6D7",
"}. c #E0B9CF",
"|. c #C988EC",
" X c #D18BED",
".X c #CB9AE9",
"XX c #D895EF",
"oX c #C584F3",
"OX c #CE83F0",
"+X c #D987F3",
"@X c #C795F1",
"#X c #D799F3",
"$X c #E691E7",
"%X c #E889F8",
"&X c #FB86FF",
"*X c #F388FB",
"=X c #FC8CFF",
"-X c #EA99F8",
";X c #F995FC",
":X c #FC9DFF",
">X c #DDA7E6",
",X c #DBAFF8",
"<X c #EBB0E7",
"1X c #E4A5F7",
"2X c #E8A8F7",
"3X c #FEA3FF",
"4X c #F5ABFC",
"5X c #FEACFF",
"6X c #EBB5F8",
"7X c #F5B5FA",
"8X c #FEB4FF",
"9X c #FDBCFF",
"0X c #CBC5C1",
"qX c #D9D1CC",
"wX c #E9DDCC",
"eX c #F4E3C3",
"rX c #F6E6CA",
"tX c #F9E6C8",
"yX c #F7E8CB",
"uX c #F9EACD",
"iX c #E9E3DE",
"pX c #F5EAD7",
"aX c #FAECD1",
"sX c #FBEFD9",
"dX c #FBF1DC",
"fX c #EBC5F1",
"gX c #FFC2FF",
"hX c #FDC9FE",
"jX c #FFD3FF",
"kX c #FFDAFF",
"lX c #E8E3E0",
"zX c #F7F0E2",
"xX c #FCF4E3",
"cX c #FDF6EA",
"vX c #FEF8ED",
"bX c #F4F3F2",
"nX c #FFFBF3",
"mX c #FFFFFF",
/* pixels */
":.:.#.' &._.,.-X:Xp.p.%X8.@X7X8XgX6X`.@X-Xq.*._ Z Z _ 8.-X4X).=.2X9X8X7X;.,.*Xt.t.&Xu.=.(.#.' =.>.:.",
"/.(.,.,.8.@X,.9.*Xi.y.&Xw.oX1XhX8X3X|.@XhX4X4X*.V Z *.5XhXhX=.;.3X:X5X|. .w.y.5.y.%Xo.#.*.8.|.,._./.",
" Xo.o.} *.q.1X9.3.*Xp.&X=Xw.+X7X5X=X%X#XhXjXkX#XN V  XjXkX1X| OX=X;X1X#.&.3Xi.p.%Xo...;.XXq.@.O.7.XX",
"8X%XX.} ..' |.1Xw.r.=X3X5X-X+X2XgX5X7X,XfXhXjX6XA M #XjXjX|.S -X3X5X/.| |.jXgX-X' F  .#Xq.+.2.2.%X9X",
"w.8X4XO.} F _ -.7Xu.i.3X8X9X4X,XjX}.A.C.C.C.A.C.z z C.A.A.U U C.'.2X` #.5X2X X` F |  Xu.2.2.3.:X8Xw.",
"O.0.=X5X-.N D B 8.8Xr.&X8XjXhXhXhXw 5 5 5 5 5 5 5 5 5 5 5 5 5 5 w { N 1XjX XB D V *.=X4.2.4.:X-X7.O.",
").q.2.u.8X8.N Z N |.5X6.1.P s.P s.s.b.N.N.N.N.N.N.N.N.N.N.N.N.c.c.L L I P ~ Z Z B 2X3Xt.i.5XOXX.:.>.",
"| ).XX%X-XhX-.N D c W [.K 7 e t p B.Q.aXaXaXaXaXaXaXaXaXaXuXaX!.G.p r 7 e L c E ].2X7X7X+X*. .%.%.S ",
"Z A &.,X6X7X9X|.B - O 3 r G.W.rXeXyXuXuXaXuXaXaXaXuXuXaXaXaXaXuXuXyXeXQ.L.u 6 @ q 4X*.( B G $...V Z ",
"M C M &.1X=Xy.[.L 9 t v.H.~.uXuXaXuXtXQ.P.K.G.G.K.D.F.G.F.L.E.eXuXuXaXuXeXH.c.y w L Y M D G A V V b ",
"8.#.V m ' -Xe.T # u R.tXaXuXtXeXeXQ.U.G.n.i i i p i i i i n.G.R.!.Q.~.~.rXrXrXE.u @ h b C N ( | { 8.",
":X4XXX#.b _ H 6 c.P.rXuXaXuXE.G.n.n.n.n.i i i i p i i i i i a n.n.n.n.m.L.~.uXrXU.n.> - ( { OX2X8X:X",
"t.6.p.;X'.z 0 u R.eXyX~.U.G.V.m.V.V.G.P.P.P.P.P.P.P.P.P.P.P.P.K.G.m.a i n.G.~.yXeXQ.u w P {.hX:Xi.y.",
";Xp.4.4.^ 5 c.R.uXuX~.K.V.n.v.V.I.!.tXdXdXdXdXdXxXdXdXxXdXdXdXtX~.U.D.a a D.K.W.rXaXE.b.3 C.p.i.&X;X",
"`.@X-X*X^ 7 B.eXuX~.K.m.V.U.E.eXaXuXtXsXsXaXsXaXaXaXaXaXaXaXaXaXuXuXeXE.U.I.K.D.H.aXeXD.e ^ &X4X1X@X",
">.:. .U I p P.tXeXK.D.V.L.tXuXaXdXaXuXuXuXaXuXaXaXaXaXaXaXuXaXaXaXdXaXuX~.~.G.D.D.T.eXE.p P ~ .X`./.",
"OX-.] & # I.~.eXI.m.n.Y.yXdXsXuXuXuXaXuXaXuXaXaXaXaXaXaXaXaXaXaXuXaXaXaXdXeXI.K.D.i E.~.L.5 = ^. X X",
"8X8X-Xw y ~.rX~.m.G.E.tXuXsXuXuXaXdXdXcXcXcXcXcXcXcXcXcXxXcXcXdXdXuXaXuXsXuXeXeXG.i E.uXtXu w <XgX8X",
"9X[.Q s.D.aXaX~.m.I.aXaXaXsXdXdXsXxXvXnXnXnXnXnXvXnXnXnXnXnXnXcXxXdXdXdXsXaXuXaXE.n.E.aXaXB.u Q ].gX",
",XL X r R.aXuX~.K.Q.aXuXsXdXvXvXvXnXnXnXnXnXnXnXnXnXnXnXnXnXnXvXnXvXnXcXxXsXuXaX~.K.~.aXaXE.p o L 1X",
" .d X u eXaX~.~.~.tXaXsXxXcXnXnXnXnXnXnXnXnXnXnXnXnXnXnXnXnXnXnXnXnXnXnXvXxXsXaXrX~.E.~.uXeXc.X 1 #.",
"' h   f.aXaXU.I.yXuXsXxXvXnXnXnXnXnXnXnXnXnXnXnXnXnXnXnXnXnXnXnXnXnXnXnXnXvXxXsXaXuXI.K.uXaXM.o - ' ",
").H   d.aXaXD.V.uXdXdXvXnXnXnXnXnXnXnXnXnXnXnXnXnXnXnXnXnXnXnXnXnXnXnXnXnXnXcXxXsXaXD.D.uXaXM.o - ] ",
"_.H   f.aXuXD.m.yXdXcXnXnXnXnXnXnXnXnXnXnXnXnXnXnXnXnXnXnXnXnXnXnXnXnXnXnXnXnXnXdXaXD.V.rXaXM.o - Y ",
"{ j   d.uXaXG.m.rXxXnXnXnXnXnXnXnXnXnXnXnXnXnXnXnXnXnXnXnXnXnXnXnXnXnXnXnXnXnXnXxXaXB.V.rXuXM.o % z ",
"*.1   f.uXuXD.m.uXxXnXnXnXnXnXnXnXnXnXnXnXnXnXnXnXnXnXnXnXnXnXnXnXnXnXnXnXnXnXnXxXuXV.V.rXaXM.o * z ",
">.j   z.xXzXF.m.tXxXnXnXnXnXnXnXnXnXnXnXnXnXnXnXnXnXnXnXnXnXnXnXnXnXnXnXnXnXnXnXxXaXH.K.pXcXS.o * U ",
">.h   x.mXmXP.m.rXxXnXnXnXnXnXnXnXnXnXnXnXnXnXnXnXnXnXnXnXnXnXnXnXnXnXnXnXnXnXnXxXaXR.eXnXmX0Xo : x ",
"| d   x.mXmXW.K.tXxXnXnXnXnXnXnXnXnXnXnXnXnXnXnXnXnXnXnXnXnXnXnXnXnXnXnXnXnXnXnXcXaXQ.uXnXmX0Xo % l ",
"o.H   x.mXmXpXeXtXxXnXnXnXnXnXnXnXnXnXnXnXnXnXnXnXnXnXnXnXnXnXnXnXnXnXnXnXnXnXcXsXtXaXdXmXmX0Xo & l ",
"6XI   x.mXmXmXbX~.sXnXnXnXnXnXnXnXnXmXnXnXnXnXnXnXnXnXnXnXnXnXnXnXnXnXnXnXnXvXsXtX!.cXmXmXmX0XO : ! ",
"jX].K 0 d.mXmXcXE.eXxXnXnXnXnXnXnXnXnXnXnXnXnXnXnXnXnXnXnXnXnXnXnXnXnXnXnXnXcXsXeXY.zXmXmXz.2 1 L k.",
"9X6X>X: 2 mXmXcXT.~.pXcXnXnXnXnXnXnXnXnXnXnXnXnXnXnXnXnXnXnXnXnXnXnXnXnXnXnXnXsXeXK.zXmXmXe . z h.^.",
"@X@X@X: 2 mXmXcX~.eXsXcXnXnXnXnXnXnXnXnXnXnXnXnXnXnXnXnXnXnXnXnXnXnXnXnXnXnXcXsX~.K.zXmXmX9 . k x [ ",
"_.oXq.T I d.lXnXxXrXeXcXnXnXnXnXnXnXnXnXnXnXnXnXnXnXnXnXnXnXnXnXnXnXnXnXnXnXcXeXeXpXbXiXz.2 - k ) =.",
" X%Xu.y.^ @ S.mXmXaXW.pXcXnXnXnXnXnXnXnXnXnXnXnXnXnXnXnXnXnXnXnXnXnXnXnXnXcXzXeXrXmXmX0X: L Q ! [ OX",
"&Xy.6.p.W X z.mXmXnXzXW.yXnXnXnXnXnXnXnXnXnXnXnXnXnXnXnXnXnXnXnXnXnXnXnXnXpXW.pXnXmXmXS.o 8 T / <.&X",
"i.&X5X9X'.1 I J.bXmXnXpXpXrXpXsXcXvXnXnXnXnXnXnXnXnXnXnXnXnXnXnXnXcXsXaXrXrXpXnXmXmXJ.a.& - ~ %Xr.y.",
"3X2XXX&.( N j 9 lXbXmXmXpXU.Q.uXxXvXnXnXcXnXnXnXnXnXnXnXnXvXnXnXvXxXaXeXR.wXmXmXbXlXt 8 s f c |.-X:X",
"&._ B N b D m 1 : z.mXnXcXzXxXcXnXcXxXxXxXxXxXxXxXxXxXxXxXxXxXxXxXnXnXcXbXnXmXmXx.: 4 W U g v b | *.",
"V V V C D F x ! , 0 f.H.qXnXmXmXmXbXcXcXcXcXcXcXcXcXvXcXvXcXcXcXnXnXmXmXmXiXZ.z.9 % L j.~ Y n M Z b ",
"Z V S ..S ( +X4X<.; X # f.mXmXmXmXmXmXmXmXmXmXmXmXmXmXmXmXmXmXmXmXmXmXnXmXZ.# X $ g z [ ].XXoX| V Z ",
"| %.%._ &.1X3Xy.4.^ j s < > > 2 y lXmXmXmXmXmXmXmXmXmXmXmXmXmXmXlXs.9 > > 8 J H s f g Y 6X-X%X#X=.| ",
":.&.X.OX7X&X6.5.=X-.g c H + O % , d.x.Z.x.x.x.x.x.x.x.x.x.x.x.x.d.9 : + + 4 T ! R g v m -.8Xw.3.,.;.",
"O.7.;X3Xr.3.5.=X@XA N [ '.W J s U %                             % W W W g.W Q T '.! n D B *.5X=X3.+.",
"u.3X%X2.2.3.-X|.` N *.7XfX{.c l ! 0 , & * < < < & & < < < , , , 0 k.h.h.k.C.'.1.7.>X8._ F ` X.-X3Xr.",
"8X0.2.@.+.+XXX .S &.3X9XhX-.N ] '.1.[ l E k.k.E s g h.k.j.Q Y Q j.^.j.^.j.{.$X*X0.0.1XoX ...} X.+X5X",
"OXO.@.@.q.XX&...*.;X&X=X-X .&.2X;X;X[ x ^.l.l.U f f E l.l.g.Y E ~ '.{.@X X*Xi.t.r.2.0.#X8.O.o.o.O.+X",
"/._.).8.8.=.:.O.;Xi.t.=Xq.:.@X8X3X4X=.{ {.].|.Y v v ) '.{.{.^.[ ].-X7X1X8.w.y.5.t.i.7.oX`.*.=.=.(./.",
"#.:.#.' #.(.=.-X3X&X&X*X;./.5X3XhX1X>.@X4Xq.&.( Z Z _ 9.%X4X@X_.6XgX9X7X`.7.=Xy.t.=X+X,.`.#.' &.>.:."
};
