/* XPM */
static char *result[] = {
/* columns rows colors chars-per-pixel */
"50 50 243 2 ",
"   c #180601",
".  c #380F03",
"X  c #3D1104",
"o  c #3A1211",
"O  c #441404",
"+  c #4C1706",
"@  c #4B150D",
"#  c #521A07",
"$  c #591C08",
"%  c #631F08",
"&  c #592608",
"*  c #68250A",
"=  c #762807",
"-  c #74260E",
";  c #732A0D",
":  c #7A2A12",
">  c #723210",
",  c #5D2328",
"<  c #7D4512",
"1  c #581E50",
"2  c #4E2650",
"3  c #743354",
"4  c #5E2564",
"5  c #6D3164",
"6  c #883A09",
"7  c #852C11",
"8  c #8C3513",
"9  c #933415",
"0  c #8B3C2F",
"q  c #8F4709",
"w  c #9C510E",
"e  c #984418",
"r  c #9C5514",
"t  c #AE5B0F",
"y  c #A64A1A",
"u  c #A65713",
"i  c #B66607",
"p  c #B46A17",
"a  c #954626",
"s  c #954E2F",
"d  c #A55A21",
"f  c #A56527",
"g  c #B46D2D",
"h  c #C56A1B",
"j  c #CC7814",
"k  c #CB7818",
"l  c #C7762C",
"z  c #C97828",
"x  c #913549",
"c  c #911E68",
"v  c #8F336A",
"b  c #8F4758",
"n  c #A7585D",
"m  c #92456B",
"M  c #94526D",
"N  c #A95A6E",
"B  c #AD6B6A",
"V  c #B78535",
"C  c #D88318",
"Z  c #D78827",
"A  c #D48C2F",
"S  c #C48737",
"D  c #D9973A",
"F  c #E48D2B",
"G  c #E6962D",
"H  c #E79937",
"J  c #D5A23E",
"K  c #E9A436",
"L  c #EDA33A",
"P  c #F0A23B",
"I  c #D79241",
"U  c #D99B47",
"Y  c #C89553",
"T  c #E69743",
"R  c #E8A847",
"E  c #F1A844",
"W  c #F3AD4B",
"Q  c #EBB84D",
"!  c #E3AE56",
"~  c #EEB353",
"^  c #F5B251",
"/  c #F5B857",
"(  c #F7BB5A",
")  c #F8BE5D",
"_  c #F4C35D",
"`  c #F9C463",
"'  c #F6C869",
"]  c #FBCC6C",
"[  c #F8D26B",
"{  c #F9CC74",
"}  c #F7D575",
"|  c #FDD474",
" . c #FED979",
".. c #FEE17C",
"X. c #623491",
"o. c #733CB8",
"O. c #7044B2",
"+. c #5F3ADF",
"@. c #683BC4",
"#. c #673DDF",
"$. c #5D3CE1",
"%. c #5E3EE8",
"&. c #633FE0",
"*. c #6C43DD",
"=. c #6D4ADE",
"-. c #764ED0",
";. c #7343DB",
":. c #7A47DA",
">. c #7E48D8",
",. c #6644E7",
"<. c #6C45E3",
"1. c #6745EA",
"2. c #6E49E8",
"3. c #764AE2",
"4. c #7D52E5",
"5. c #6749F0",
"6. c #7A4AF1",
"7. c #7E5AF0",
"8. c #A53099",
"9. c #8C50AE",
"0. c #9D61B6",
"q. c #AE61A4",
"w. c #D25EB4",
"e. c #CB78B8",
"r. c #D338E0",
"t. c #E93DFF",
"y. c #864ACF",
"u. c #8A57C6",
"i. c #8654DE",
"p. c #8C51D9",
"a. c #9759DA",
"s. c #BE5ECA",
"d. c #A65FDE",
"f. c #9964DD",
"g. c #A166DF",
"h. c #8258E4",
"j. c #8D5AE4",
"k. c #9350EC",
"l. c #955DE8",
"z. c #8A4EF2",
"x. c #A459E8",
"c. c #B558E7",
"v. c #B251ED",
"b. c #BF48F1",
"n. c #8C63E8",
"m. c #9661E4",
"M. c #9B68E5",
"N. c #9E6AED",
"B. c #946BF1",
"V. c #AA67E0",
"C. c #A46EE7",
"Z. c #A86BE6",
"A. c #B166E4",
"S. c #B66DE6",
"D. c #AB77EB",
"F. c #B075E4",
"G. c #BF79E6",
"H. c #B57AEB",
"J. c #BF7FED",
"K. c #A070F3",
"L. c #AB78F5",
"P. c #B874F0",
"I. c #D953CB",
"U. c #DA6FCB",
"Y. c #E56FCB",
"T. c #CE4CF4",
"R. c #D755F7",
"E. c #E846FF",
"W. c #F249FF",
"Q. c #EB53FF",
"!. c #E45AFC",
"~. c #EE5AFF",
"^. c #F458FF",
"/. c #C273EF",
"(. c #C57DE8",
"). c #C664F0",
"_. c #D566F7",
"`. c #C977F2",
"'. c #D778F5",
"]. c #EE74E6",
"[. c #E76DFB",
"{. c #F265FF",
"}. c #FD67FF",
"|. c #F66AFF",
" X c #E879FB",
".X c #F471FE",
"XX c #F974FF",
"oX c #F37AFC",
"OX c #FA7CFF",
"+X c #D093BD",
"@X c #FAD986",
"#X c #F9DE98",
"$X c #FEEDAA",
"%X c #B283EE",
"&X c #AC83F6",
"*X c #B987F4",
"=X c #DC95CF",
"-X c #C484EB",
";X c #CA8BEC",
":X c #D18DED",
">X c #D592E6",
",X c #D895EF",
"<X c #C584F3",
"1X c #CE83F0",
"2X c #D680F5",
"3X c #DD83F6",
"4X c #D589F1",
"5X c #DA8EF3",
"6X c #C895F1",
"7X c #D395F3",
"8X c #DC9BF2",
"9X c #E586F7",
"0X c #EE8EF9",
"qX c #F782F6",
"wX c #F287FC",
"eX c #FC85FF",
"rX c #FD8DFF",
"tX c #E896F8",
"yX c #EE9EFC",
"uX c #FF94FF",
"iX c #F698FC",
"pX c #FD9CFF",
"aX c #D4A5F5",
"sX c #DEB2F9",
"dX c #E3A4F7",
"fX c #E9A6F8",
"gX c #E9ACF8",
"hX c #F6A5FD",
"jX c #FEA4FF",
"kX c #F5ADFD",
"lX c #FEACFF",
"zX c #E9B6F9",
"xX c #EFB4FA",
"cX c #F6B3FC",
"vX c #FEB5FF",
"bX c #F5BBFC",
"nX c #FDBCFF",
"mX c #EEC5F8",
"MX c #FEC2FF",
"NX c #FECAFF",
"BX c #FED3FF",
"VX c #FFDAFF",
"CX c #FEF9ED",
/* pixels */
"K.K.V.p.Z.*XP.dXjXoXOX0XJ.6XcXvXMXgX*X6XyX`.A.p.1.1.p.`.tXkX*XD.gXMXlXxXH.S.wX|.{.rX'.H.L.M.a.D.L.N.",
"%X&XL.A.(.;X`.).wX.X|.eX'.`.dXMXvXjX;XaXMXkXfXS.<.1.V.lXMXNXD.H.jXuXlX;XN.'..XQ.|.9Xx.N.F.(.(.*X*X&X",
"4Xx.x.k.c.1X8X`.R.wXOXeXiX'.4XkXjXuX9X7XNXVXVX8X;.<.:XBXVXfXj.1XuXuXdXl.Z.pXXXXX Xx.z.D.7X`.b.A.).,X",
"vX9Xv.k.z.k.<XdX'.[.rXjXlXtX5XgXMXjXcXsXmXNXBXxX:.<.8XVXBX*X4.tXjXlX%Xh.;XBXMXtXa.6.l.8X'.b.b.T.0XnX",
"'.vXhXc.i.6.p.G.zX XoXjXvXnXgXgXBXVXNXgXmXMXNXxX:.*.dXVXNXf.j.kXlXfXh.M.cXhX:Xi.6.h.;X XT.T.R.pXvX'.",
"c._.rXlXG.>.5.>.(.vX[.OXvXVXNXNXNXcX3XfXBXBXVXgX;.=.tXBXxX;.H.pXuXZ.<.fXVX:X>.5.<.F.rXE.T.Q.jX0X).c.",
"*X`.)..XvX(.;.1.;.;XlX~.|.lXNXtX/.a.a.3XnXNXNX4X,.<.1XvX-X+.8XjXtX<.H.uXjX:X,.,.y.gXhX{.XXlX`.x.Z.K.",
"h.*X7X9X0XMX(.;.1.;.;XpXQ.XXNXzX/.a.y.a./.2X2XA.1.3.A.'.l.2.bXNXC.:.iX~.iXj.,.F.cXyXcXkX5XV.j.N.B.h.",
"1.;.Z.zXzXkXnX;X>.5.;.7XuX{.uXMXBX8Xg.y.a.V.A.a.,.3.Z.`.3.j.VXzX#.-XXXeXF.#.-XuXlXbXV.y.>.7.n.7.1.1.",
"*.1.*.M.gXiX|.uXfXa.%.:.8XrXQ.{.uXe.M v v m m v 4 5 m m 4 m B 5 X.qXXX-X+.H.eXt.{.lXa.*.5.7.2.*.&.;.",
"G.l.<.#.a.8XeXE.{.hXg.%.:.>X].I.I.s = = - ; : - - - > - : - ; * 0 Y.U.@.f.uXE.Q.jXg.<.5.2.;.:.p.g.(.",
"pXlX,XM.*.:.;XuX~.~.jXg.$.-.v 0 l z z A S I I I I I I I I A A h h l 0 1 =XXXeXyXg.<.1.<.y.V.1XgXcXpX",
"{.~.OXpX;X4.+.l.yXeXXXlX9.5 a p k G P E W ^ W ^ ^ ^ ^ ^ ) ( E H G Z t a N e.,X#.&.1.>.d.7XbXMXjXXX{.",
"iXqXW.E.|.0XG.#.;.;XuX].N = k G P W ^ ^ ^ ^ ^ ^ / ^ W ^ ' ' ^ ^ W H F h 7 b @.%.:.a.,XMXnXuXXXXXeXiX",
"*X6XtXOXQ.t.}.0XM.$.u.m s k F P W ( ^ ^ ^ W W { #X( ^ ^ / ) ) ^ W W H F h 0 1 9.:XMXnXuX|.|.eXiXdX*X",
"L.K.B.D.;X9X}.^.|.4XO., u P P E ^ ^ ^ ^ ^ ^ ^ { @X/ W ^ ^ ^ ) ^ / { ^ H F t : +XnXuXXXXXOXwXdXaX6X%X",
"'.H.C.7.2.3.Z.5X}.^.U.0 p L E ^ ^ ^ ^ ^ ^ ^ ^ ^ ^ ^ ^ ^ ^ ^ ^ W ` $X@XW T h a Y.}.XXeXuXkXzXzXaX;X4X",
"vXvXfX5XH.j.#.#.M.q.x p Z W ( ` ] ` ) ^ ^ ^ W ^ ^ W ) ] / W E ^ ) ' / W W A y 0 8.W.{..XoX0XiXbXMXvX",
"nXuXXX}.|.oX3XJ.j.5 = Z E ( ' |  .] { ` ` ( / / ^ ^ ) ] / W E / ` ^ ^ W W H h 7 c E.E.Q.~.{.|.OXlXMX",
"aXdXtX0XXX|.}.^.|.v - D / ] |  . . . . .| ] ` ) ) ^ / ) ^ W H ) ] ^ ^ W P F h = c E.E.E.Q.~.|.iXzXdX",
"m.M.C.M.C.D.J.'.oXv : Z / | [ |  .| |  . .| ] ] ] ) ) ] / E H ^ ) W W ^ / L C = x E.~.|.wXyXfX7X*XC.",
"f.g.V.M.m.4.=.=.=.5 = k K ` ` ] @X] ] @X .| |  .| ` ] | ^ P T ^ / E W / / K k = v rXlXnXxX8X/.A.a.a.",
"*X<X'.3X X9X9X4X1X5 % t C G W { $X{ { $X@X{  . .| ] { | W P T ^ / T Q _ K C i * b 8X-Xg.a.p.l.l.K.L.",
"*X<X'._.R.E.t.r.8.x q C K R H I Y I V Y U R R ~ W R W W P H z D D z Z A D D g & 2 #.#.%.1.6.z.l.K.&X",
"D.F.-X;X5XtX0Xs.o e l Q _ R z u q 6 q w p z Z Z Z G D G G G Z Z k p i u S J V & 2 -.i.m.a.a.g.a.V.V.",
"Z.g.a.a.a.i.-.O.o < S ' Q g y 9 = * 6 t D Q Q Q Q Q Q Q Q Q Q Q Q Q J V d r e : @ , s.wX0X5X>X*XH.F.",
"L.K.B.z.6.1.*.X.o * y I g r 9 8 7 * : y g S I T R _ @X#X} [ [ [ _ J V f 8 : - - +   8.E.E.R._.'.`.*X",
"L.C.l.p.l.V.Z.0., $ - 8 8 - 7 9 9 : : 9 : 8 t h l ' $XCX$X......( z 9 - - $ + % +   9.3X9X5X:X2X<X%X",
"p.a.A.;XtXbXVXmXe.3 # % % % = 7 9 : : 9 9 8 9 y y S ! @X[ [ [ J l y 9 7 - * # $ X   X.=.:.h.j.m.m.a.",
"Z.6XdXfXhXhXNXpX~.c O O + + % - = - - 7 : 7 8 7 8 y l R Q J S g e : : - - $ # O , 4 s.6X<XH.D.D.N.l.",
"gXkXeX{.~.OXnX|.t.c + . . X + + O # % - % % - - : 8 y g ! S > ; - $ # O # $ $ X 3 {.Q.^.}.{.XXiXgXdX",
"VXvXOX{.{.0XBXOXt.c % r r 6 $ O O + $ $ # + $ % % % > > < < % # # O O O $ O O + 2 h.D.'.3XoX.XeXvXVX",
"nXzXgXtXyXbXMXnX|.c ; A F p q > & * & # O O # & # O O O O + # + X X + & * * & # x C.,.%.4.f.H.;XgXbX",
"6X6XaXsXmXxXNXjXXXv > U / Q ! J i q = X X X # # # X . . . O $ O . O = q i i j = v XX9XM.=.4.7.B.D.;X",
"*X<X2X X0XlXuXXXuX+XN n l E ' Q Z Z g f f f g g g d d f f f f u r w t i i w 8 5 q.oX}.uX:Xx.M.C.K.&X",
"4X9X X.XXXOXuXMXvXG.O.1 s Z ~ ~ P ^ / W Q / / / ~ R L K E E P P G C C C i e x 0.&.j.4XuXMXvXwX9X'.-X",
"eX|.~.eXjXnXbX-Xp.,.,.o.N p J ^ ^ @X#X] [ ] ` ` _ ^ W W W E P H G C C j q n U.OX,X4.+.m.-XkXXXE.}.eX",
"oXeXjXnXdX(.p.;.1.,.p.8X=XB f g g ! { ( ) ` ( ( ( E E E W E H G C i w e 3 9.kXXX|.hXF.,.,.m.dXuX{.[.",
"lXgX7XZ.p.>.,.1.*.F.hXuXlX>X1 , e S H F H R T R T H F D T H H Z k a : 3 O.,.a.hXQ.t.eX;X;.,.i.-XhXpX",
"V.p.>.;.<.5.1.>.7XuX^.{.hXy.o.e.w.b 8 q w r r r r w w w r w w 6 a w.I.U.>Xy.%.M.iX~.t.uX-X*.<.<.i.V.",
"*.<.*.2.5.3.y.8XuXE.E.uXM.#.5XXXwX5 v B b 3 n n x 3 b n n B B n q..X|.Q.rX8X>.%.a.dXpXMXyXx.y.<.<.<.",
",.<.4.7.4.y.:XvX|.Q.iXF.#.%XeXeXD.<.bXnX4.4./.x.1.&.a.d.(.tXNXVXbXuXeX|.~.uX,X>.%.:.g.yXbXgX<Xj.#.1.",
"h.B.B.p.g.fXjX|.Q.uX*X+.C.eX^.tX*.H.VXgX=.Z.tXV.2.1.f./.9XbXBXnXpXuXeXOX|.~.jX,X>.1.*.V.NXfXtX7XD.h.",
"P.x.v.1XvXrX~.Q.uX;X#.p.yX}.rXZ.3.iXlX6X*.sXBX4X2.2./.hXNXVXvXrXuXqXrXrXrXXX{.lX7X>.1.;.G.vX XT.P.H.",
"v.c.hXjX_.R.!.uX;X3.;.:XvXlX,X*.-XrXuXC.h.nXVXgX2.3.dXVXBXkXwXuXpXhXcXbXMXlXwX|.vX;Xy.2.;.A.lXwXT.T.",
" XlXwXT.T.R.0X;Xh.3.S.MXVXbXj.h.gXlXjXh.D.MXNXgX;.:.bXVXnXyXtXlXMXBXmXmXVXNXvX9X XxX(.p.6.k.c.tXhX[.",
"vX Xb.v.b.3X,Xl.4.A.jXnXNX/.h.J.vXpXtXh.7XMXBX8X;.3.zXVXnXyX3XiXvXNXxXzXzXMXlXiX_._.tX-Xx.z.k.v.9XvX",
"2Xc.v.b.'.7XC.z.A.iXeXuXtXl.N.yXuXpX(.m.xXVXVX;X<.3.,XVXVXbX1X9XuXvXbX7X3XrXXX{.[.R.).8X(.d.k.x.c.:X",
"%X*XP.-XG.D.N.c.iX.X{.eX`.K.7XvXjXhXD.D.MXxXtXd.1.<.A.hXMXNX6X7XhXlXvXdXG.[.|.Q.{.oX).`.*XF.F.L.&X%X",
"B.K.M.a.N.&XD.tXjXeXeX0XH.*XkXjXNXdX&X6XyX`.g.p.1.1.p./.3XhX6X*XzXMXvXbX*X/.0X.X{.rX3XH.*Xd.p.C.L.K."
};
