/* XPM */
static char *result[] = {
/* columns rows colors chars-per-pixel */
"50 50 25 1 ",
"  c #465280",
". c #505D8C",
"X c #353E61",
"o c #657692",
"O c #515E86",
"+ c #4B578A",
"@ c #5B6A8C",
"# c #4D5A83",
"$ c #4A5681",
"% c #546386",
"& c #444F7E",
"* c #424C7A",
"= c #5F6F8F",
"- c #384268",
"; c #3F4976",
": c #3B456F",
"> c #6C7E96",
", c #57658B",
"< c #72859C",
"1 c #475386",
"2 c #515D95",
"3 c #4D5890",
"4 c #798EA1",
"5 c #879EAB",
"6 c #9BB4BD",
/* pixels */
"+:-%>o= o#o@%*:;O@,<>,>%-X#o=<>@o#::*O=o#o =o<O-:+",
":X-,><=*@$=,#$&+$,O=4@o< &==<<,o,&+$1*@@Oo*,=4,-X;",
"-- @44@;,$%%#$ %O+@$<o@5<=o44,==&O%#+*%%,,*O=5=&--",
"%=o45>O*O$$O+ $%+;$.%4%<6545=,>*#..#.&OO@$ $%54@,%",
"<455<,&;.#*.+  .;-:$$>=,666<.>$$$;1..*#.%*#  <5<>>",
"o=@O&;-+O.;++1 .:1.;$O<1>65Oo@ $:-:22;+.$*%&;,>4<o",
"@,O#  ..O2;&1 &2;O%O& o=+>@.> #;.3:23;1.;$O+-&O,==",
"#**&#,%O.2&-;**2*O@=# O>3O3o%$&O%.;21:*+:2O.+;*;*$",
"oo@#&* 3221X-::2&#%,@  o@3,o$ #%O+;2*X::;2.OO.%,=o",
"#O,,%#*::*;XXX-+1 23,O %>#oO$ %+21*+:X-X&222.#$$$#",
"o=%O...+;XXXXXX&+&3..%$ o<= $#31 &&&X-XX; &;;&#%=>",
"@,O##+1;:-XXX-X:+*1.O.# O>$$$.23:;&:X-XXXX- +.O%,@",
"#*&&&;;:XX--X--X1&&32.O$ O $#.2+:;&--XXXX-;1++O##%",
"*1OO.223&:-X-:-X*+ 31#,# & #,+++;1*X:-XX-:*    $$*",
":1##.333331;-X-&:3 .;-@%&-#%%- . 3----XX-;*& $$$&:",
";+%.1--:;;*&&&::-&+O$;%=#+#= :##3&;*XX:&3222..O%+;",
"O&#.;-3.++&;; 3 --+O%1#o%+@@1$%#+X-:&1++1&*;:;.O$O",
"o@&$#:+%%2&::* ++1.#@##o@&o%#O%+ : 3+** $#O.+:*+,@",
",=o& #;#%+1333.#$#O#@@&@o%> #=OO3++1 &132%@%.:#,O@",
"<,@>O&#&$%.221*$%,O$$o $<<,;@=$##OO.33O.3@=#;#O#o<",
"<<@.>o$$  #...-:1O==$o@@<4,,o #@@% ;12O.@@$&$$,<<>",
"@<5>+=>@$ $$#%,$1#1,o4<4>o4>4oo,#1::OO.%#   %<<o@,",
"o=<54,.oo%  $#%==,$;%o>oo=>>>@*&##%=,##$& %><=O@>>",
"$=o465=+2oo#  $#,o>=,4<@@@@>4@#@oo=%#$ $,>>,1=45>#",
"X&=566>O3#<>O&-++*#<5o@=%%@o><<=,O$&  %>>,3O<66>*X",
"-$466o13=>o#   #%=o>><>=%%@o>4<O&+1-&O>>#3O>665=*X",
"%<5<.+=>oO  $#,=o=, @<>@==@<4%,>o@##$ #=o,+=564o=#",
">o,%o<oO  $#O,@O##& @<<<=>><oO;1%@=%#$$ Ooo.O<5<=o",
"@@>4o# & %%..#-;1#@o=<o<>><><o@##1&%,#$$ $%>o.o4<@",
"><>O$$&#=,.O21*#%@@$$oO%5>,@= ==O$--+..#  $ =>,,<<",
"<=#. ;%o%3+.33.O###$=,;=<>$&o#$O%%# +222%$*# #>=,>",
"@%, :2%@%.31*&1++..O=##>#o@ @@#.+$#.+1+1+%O;#$&=o@",
"@%+*- ##$ &*&33&- #,O#,o&@=##@#+&+3 ;::12%%3:$#&,o",
"$$O3*:;* 1++ ;::-.$% 1=@+Oo#1%O+--&31;;* +++X*.O #",
":+%%..222+*-XX&: +##-$=#1$=%:$O+ :;-*& &*;:-:+.%+:",
":&   &*;:-XX---:3&.&:,%$- %@:;. 3:*-X-; +2222+## :",
" #$$$1 *:XXX-:X& ;+3.O$   #,O+3&+*X-:-XX:*133.O+$*",
"%##+++1;-XXX---&;:+2.#$ % $O.23&&1X--X--XX:;;*&*&O",
"=@,%.+*-XXXX-X;&;;32.$ O<O #.OO1*+:XXXXX-;&+3#O%@=",
"o@O$*;*11;XXX-1*&11.#$ o>> $%.33&+&XXXXXX:+...O%@o",
"####O.222&X-X:3;+2+% $%o+>% O@32 1+--XX; ;:*$%@@O#",
"o@%OOOO.2:;:X&2;+%%$$$>22@o  @@%$&2;:-X122.1**$,oo",
"&***;1.O3:+*:+2:.%#&$@o+%+>O $=@#*2**;- 2.O%,# ** ",
"oo=O -+% *.+;23-++;#$>.o<#@> &O%+;2*11&;2O.+*&#%@=",
"o>4<,;&%*#.+;22:X:O&o=,56>1<O$;3 :.&1++;.O1-*$,o=o",
">>45<  #*%.#&..+*# O>.4666@=>$$:-*. $+O&#.; @4554<",
"#O,45%#&#@O#&O#..$ >.>54564%<,O$&.% $+%$$O*O<5<=%#",
"-X&o5=.*@,%%&+#%#&o@@4>o@<5@o<#,+#% $#,%$%;=4<,*X-",
":X-@4=,*oO=@*$ 1&==,<<=@* <>@<o%%$+*$#,=$@*o>>OXX;",
"+:-%<o=$o#o@O*::O=,<<@o$XXO>@><@@#:: %@o#o oo>#-;."
};
